<svg width="25" height="24" viewBox="0 0 25 24" fill="none" xmlns="http://www.w3.org/2000/svg">
<g clip-path="url(#clip0_1_1345)">
<path d="M7.47803 8V6C7.47803 4.67392 8.00481 3.40215 8.94249 2.46447C9.88018 1.52678 11.1519 1 12.478 1C13.8041 1 15.0759 1.52678 16.0136 2.46447C16.9512 3.40215 17.478 4.67392 17.478 6V8H20.478C20.7432 8 20.9976 8.10536 21.1851 8.29289C21.3727 8.48043 21.478 8.73478 21.478 9V21C21.478 21.2652 21.3727 21.5196 21.1851 21.7071C20.9976 21.8946 20.7432 22 20.478 22H4.47803C4.21281 22 3.95846 21.8946 3.77092 21.7071C3.58338 21.5196 3.47803 21.2652 3.47803 21V9C3.47803 8.73478 3.58338 8.48043 3.77092 8.29289C3.95846 8.10536 4.21281 8 4.47803 8H7.47803ZM7.47803 10H5.47803V20H19.478V10H17.478V12H15.478V10H9.47803V12H7.47803V10ZM9.47803 8H15.478V6C15.478 5.20435 15.162 4.44129 14.5993 3.87868C14.0367 3.31607 13.2737 3 12.478 3C11.6824 3 10.9193 3.31607 10.3567 3.87868C9.7941 4.44129 9.47803 5.20435 9.47803 6V8Z" fill="black"/>
</g>
<defs>
<clipPath id="clip0_1_1345">
<rect width="24" height="24" fill="white" transform="translate(0.478027)"/>
</clipPath>
</defs>
</svg>
